<?xml version="1.0" standalone="no"?>
<!DOCTYPE svg PUBLIC "-//W3C//DTD SVG 20010904//EN"
 "http://www.w3.org/TR/2001/REC-SVG-20010904/DTD/svg10.dtd">
<svg version="1.0" xmlns="http://www.w3.org/2000/svg"
 width="512.000000pt" height="512.000000pt" viewBox="0 0 512.000000 512.000000"
 preserveAspectRatio="xMidYMid meet">

<g transform="translate(0.000000,512.000000) scale(0.100000,-0.100000)"
fill="#000000" stroke="none">
<path d="M2425 5114 c-469 -44 -849 -216 -1173 -528 -253 -245 -433 -552 -517
-886 -46 -184 -58 -302 -53 -517 9 -341 60 -525 253 -907 287 -570 710 -1206
1250 -1881 221 -276 291 -356 329 -377 78 -44 98 -26 417 373 399 497 773
1032 1045 1494 143 243 325 614 372 757 65 200 84 313 90 541 3 154 1 222 -13
310 -62 413 -231 757 -514 1049 -288 298 -648 486 -1061 554 -86 14 -351 25
-425 18z m321 -920 c408 -84 713 -400 779 -806 19 -117 19 -189 0 -306 -77
-477 -483 -822 -965 -822 -482 0 -888 345 -965 822 -19 117 -19 189 0 306 66
405 367 718 776 807 88 19 282 19 375 -1z"/>
</g>
</svg>
