<?xml version="1.0" standalone="no"?>
<!DOCTYPE svg PUBLIC "-//W3C//DTD SVG 20010904//EN"
 "http://www.w3.org/TR/2001/REC-SVG-20010904/DTD/svg10.dtd">
<svg version="1.0" xmlns="http://www.w3.org/2000/svg"
 width="704.000000pt" height="244.000000pt" viewBox="0 0 704.000000 244.000000"
 preserveAspectRatio="xMidYMid meet">

<g transform="translate(0.000000,244.000000) scale(0.100000,-0.100000)"
fill="#000000" stroke="none">
<path d="M1220 2302 c0 -16 -6 -35 -14 -41 -7 -6 -16 -35 -19 -64 -7 -69 -37
-153 -83 -229 -55 -93 -219 -251 -349 -337 -128 -85 -345 -193 -495 -247 -114
-41 -136 -52 -122 -66 9 -9 130 31 262 87 45 19 88 35 95 35 7 0 15 4 17 9 5
13 125 71 132 64 3 -4 6 -2 6 4 0 13 115 83 136 83 8 0 14 4 14 9 0 8 114 101
124 101 9 0 142 143 178 191 21 28 52 80 69 116 17 35 32 63 33 61 2 -2 -9
-248 -23 -548 l-26 -545 -330 -2 c-181 -1 -408 -2 -502 -2 l-173 -1 0 -75 0
-75 490 0 490 0 0 -23 c0 -13 -18 -172 -40 -353 -21 -181 -42 -357 -46 -392
l-7 -62 247 0 c234 0 246 1 246 19 0 10 -20 190 -45 399 -25 209 -45 387 -45
396 0 15 188 16 2090 16 2070 0 2090 0 2090 -20 0 -10 -20 -189 -45 -397 -25
-207 -45 -385 -45 -395 0 -17 16 -18 245 -18 237 0 245 1 245 20 0 11 -20 188
-45 393 -25 206 -45 384 -45 396 l0 21 490 0 490 0 0 75 0 75 -172 1 c-95 0
-321 1 -503 2 l-330 2 -7 135 c-3 74 -13 302 -22 505 -9 204 -18 387 -20 408
-5 49 6 47 30 -5 33 -74 93 -158 168 -237 40 -42 75 -76 77 -76 3 0 36 -25 74
-55 39 -30 79 -60 90 -66 67 -35 115 -67 115 -77 0 -6 3 -7 6 -4 4 4 41 -11
83 -32 166 -85 408 -178 423 -163 14 14 -8 25 -135 72 -65 23 -178 72 -250
109 -383 192 -618 431 -657 666 -7 39 -18 82 -26 97 -8 14 -14 36 -14 47 0 19
-6 21 -65 21 l-64 0 -7 -35 c-3 -19 -10 -38 -15 -41 -5 -3 -9 -17 -9 -32 0
-45 -29 -142 -61 -206 -164 -322 -676 -621 -1304 -760 -322 -71 -411 -80 -785
-80 -367 0 -460 9 -760 74 -756 166 -1313 536 -1380 918 -6 37 -15 76 -20 87
-5 11 -10 31 -12 45 -3 24 -7 25 -70 28 l-68 3 0 -29z m194 -305 c20 -41 55
-96 78 -123 47 -57 147 -164 154 -164 5 0 114 -80 124 -90 3 -3 38 -25 78 -48
l72 -43 0 -274 0 -275 -70 0 c-49 0 -70 4 -70 13 0 9 -2 9 -8 0 -5 -8 -58 -12
-180 -12 -170 -1 -172 -1 -176 22 -3 12 -10 153 -16 312 -6 160 -15 367 -20
460 -10 175 -13 295 -7 295 2 0 20 -33 41 -73z m4262 -352 c-9 -187 -19 -403
-22 -480 -8 -208 16 -185 -189 -184 l-175 0 -2 282 -3 282 -2 -282 -3 -283
-70 0 -70 0 0 274 0 273 62 38 c34 21 67 38 75 38 7 0 13 4 13 8 0 5 35 35 78
67 131 100 244 234 297 352 l20 45 3 -45 c2 -25 -4 -198 -12 -385z m-3511
-238 c44 -19 96 -40 115 -47 19 -7 49 -19 65 -25 17 -7 58 -21 93 -30 l62 -18
2 -131 2 -131 3 115 c2 63 5 120 8 127 3 9 20 7 67 -5 l63 -17 3 -133 3 -132
-64 0 c-36 0 -68 5 -75 12 -8 8 -12 9 -12 1 0 -8 -80 -12 -285 -12 l-285 0 0
270 0 270 78 -40 c42 -21 113 -55 157 -74z m2965 -156 l0 -270 -282 0 c-207 0
-285 4 -290 12 -6 9 -8 9 -8 0 0 -9 -21 -13 -70 -13 l-71 0 3 132 3 131 64 18
c35 10 68 16 73 13 4 -3 8 -1 8 4 0 5 28 17 63 27 34 9 71 21 82 26 11 5 45
18 75 29 91 34 200 83 275 122 38 21 71 38 73 38 1 0 2 -121 2 -269z m-2390
-31 c50 -13 176 -37 230 -45 19 -3 49 -7 65 -10 241 -40 632 -45 920 -9 81 9
282 44 335 58 30 8 67 17 83 20 l27 6 0 -129 0 -130 -360 0 -360 0 -2 67 -2
67 -3 -67 -4 -67 -139 0 -140 0 -2 67 -2 67 -3 -67 -4 -67 -359 0 -360 0 0
130 c0 120 1 130 18 125 9 -3 37 -10 62 -16z"/>
<path d="M1774 1310 c0 -140 2 -198 3 -128 2 71 2 185 0 256 -1 70 -3 12 -3
-128z"/>
<path d="M2362 1045 c0 -16 2 -22 5 -12 2 9 2 23 0 30 -3 6 -5 -1 -5 -18z"/>
<path d="M4554 1135 c0 -55 1 -76 3 -47 2 29 2 74 0 100 -2 26 -3 2 -3 -53z"/>
<path d="M6264 1500 c0 -52 1 -74 3 -47 2 26 2 68 0 95 -2 26 -3 4 -3 -48z"/>
</g>
</svg>
