<?xml version="1.0" standalone="no"?>
<!DOCTYPE svg PUBLIC "-//W3C//DTD SVG 20010904//EN"
 "http://www.w3.org/TR/2001/REC-SVG-20010904/DTD/svg10.dtd">
<svg version="1.0" xmlns="http://www.w3.org/2000/svg"
 width="654.000000pt" height="260.000000pt" viewBox="0 0 654.000000 260.000000"
 preserveAspectRatio="xMidYMid meet">

<g transform="translate(0.000000,260.000000) scale(0.100000,-0.100000)"
fill="#000000" stroke="none">
<path d="M5226 2478 c-3 -13 -7 -42 -9 -65 -3 -23 -14 -61 -25 -85 -11 -24
-34 -72 -51 -108 -34 -73 -44 -109 -46 -160 -4 -120 -4 -120 -25 -120 -18 0
-20 -7 -20 -89 0 -80 -2 -89 -20 -94 -20 -5 -20 -14 -20 -436 l0 -431 -55 0
-55 0 0 345 0 345 -24 0 c-19 0 -25 6 -28 28 -4 35 -39 38 -48 4 -11 -49 -25
-25 -28 51 -4 102 -22 100 -22 -3 0 -73 -2 -80 -20 -80 -11 0 -20 7 -20 15 0
8 -7 15 -14 15 -22 0 -58 -37 -115 -120 l-51 -74 0 -354 0 -353 -62 3 -63 3
-3 235 c-2 195 -5 236 -17 243 -11 6 -15 25 -15 67 0 58 -1 60 -26 60 -24 0
-25 -2 -24 -52 2 -72 1 -78 -10 -78 -5 0 -10 14 -10 30 0 25 -4 30 -24 30 -19
0 -25 -6 -28 -27 -3 -23 -8 -28 -35 -29 -18 -1 -33 2 -33 7 0 15 -54 10 -88
-7 -18 -8 -32 -22 -32 -30 0 -8 -9 -14 -20 -14 -20 0 -20 -7 -20 -270 l0 -270
-25 0 -25 0 0 465 c0 294 -4 465 -10 465 -9 0 -65 -24 -170 -73 -30 -14 -72
-33 -92 -41 l-38 -15 0 -351 0 -351 -52 3 -53 3 -6 380 c-3 241 -10 393 -17
415 -6 19 -18 60 -27 90 -8 30 -19 66 -24 80 -5 14 -12 37 -15 53 -6 24 -10
27 -51 27 -51 0 -53 -2 -70 -78 -13 -57 -34 -141 -54 -217 -6 -24 -11 -183
-11 -397 l0 -358 -35 0 -35 0 0 275 0 275 -25 16 c-22 15 -25 23 -25 80 0 57
-2 64 -20 64 -18 0 -20 -7 -20 -64 0 -65 -14 -94 -32 -62 -13 22 -153 24 -162
1 -3 -8 -14 -15 -26 -15 -19 0 -20 -7 -22 -337 l-3 -338 -28 0 -29 0 1 244 c0
143 -4 252 -10 262 -5 11 -21 19 -34 19 -22 0 -24 5 -28 53 l-3 52 -2 -52 c-2
-46 -5 -53 -22 -53 -11 0 -20 7 -20 15 0 12 -16 15 -80 15 -62 0 -80 -3 -80
-14 0 -8 -10 -16 -23 -20 -46 -11 -57 -64 -57 -269 l0 -187 -95 0 c-69 0 -95
3 -95 13 0 6 0 157 0 335 l1 322 -31 0 c-31 0 -33 3 -34 60 -1 24 -6 36 -19
38 -14 3 -17 -4 -17 -47 0 -39 -4 -51 -15 -51 -8 0 -15 6 -15 14 0 29 -69 36
-77 8 -3 -15 -15 -19 -53 -20 -46 -1 -49 1 -52 26 -2 23 -8 27 -33 27 -28 0
-30 -3 -37 -45 -3 -25 -7 -161 -7 -302 l-1 -258 -40 0 -40 0 0 88 c-1 70 -4
91 -19 109 -27 32 -89 32 -119 0 -19 -20 -22 -36 -24 -157 l-3 -135 -90 0 -90
0 -3 103 -3 102 -69 0 c-58 0 -73 4 -87 20 -10 11 -23 20 -30 20 -7 0 -13 9
-13 20 0 16 -7 20 -30 20 -23 0 -30 -4 -30 -20 0 -15 -7 -20 -25 -20 -14 0
-25 5 -25 10 0 22 -72 3 -92 -25 -4 -5 -8 -65 -8 -132 l0 -123 -70 0 -70 0 0
226 c0 215 -1 226 -19 231 -11 3 -21 15 -23 26 -2 12 -12 23 -23 26 -11 2 -23
8 -27 15 -6 8 -11 7 -17 -4 -8 -12 -12 -10 -20 10 -9 24 -10 24 -10 3 -1 -12
-15 -38 -31 -56 l-30 -35 0 -211 0 -212 -27 3 -28 3 -3 201 c-2 164 -5 204
-17 214 -8 7 -15 24 -15 39 0 28 -41 64 -48 42 -2 -6 -10 -11 -18 -11 -8 0
-14 -9 -14 -20 0 -10 -9 -28 -20 -38 -18 -17 -20 -34 -22 -283 l-3 -264 -22
-3 c-18 -3 -23 -10 -23 -33 0 -33 -11 -40 -67 -42 l-38 -2 3 -65 c1 -36 -1
-70 -6 -77 -4 -7 -40 -13 -92 -15 l-85 -3 -3 -78 -3 -77 3128 2 3128 3 0 75 0
75 -90 5 -90 5 -3 78 -3 77 -49 0 -50 0 0 165 0 164 -77 3 -78 3 -3 87 -3 87
-77 3 -77 3 -3 98 c-2 75 -6 97 -17 97 -8 0 -15 12 -17 28 -2 19 -9 28 -25 30
-17 3 -22 -2 -25 -25 -2 -24 -8 -28 -33 -29 -16 0 -36 6 -43 13 -19 18 -45 16
-70 -5 -20 -18 -22 -30 -24 -178 l-3 -159 -40 0 -40 0 4 432 c4 395 3 433 -12
439 -14 5 -17 22 -17 95 0 76 -3 90 -19 98 -16 9 -20 25 -23 93 -3 69 -9 95
-37 153 -98 203 -101 211 -101 258 0 35 -4 47 -15 47 -8 0 -17 -10 -19 -22z"/>
<path d="M4211 1304 c0 -11 3 -14 6 -6 3 7 2 16 -1 19 -3 4 -6 -2 -5 -13z"/>
</g>
</svg>
