<?xml version="1.0" standalone="no"?>
<!DOCTYPE svg PUBLIC "-//W3C//DTD SVG 20010904//EN"
 "http://www.w3.org/TR/2001/REC-SVG-20010904/DTD/svg10.dtd">
<svg version="1.0" xmlns="http://www.w3.org/2000/svg"
 width="406.000000pt" height="172.000000pt" viewBox="0 0 406.000000 172.000000"
 preserveAspectRatio="xMidYMid meet">

<g transform="translate(0.000000,172.000000) scale(0.100000,-0.100000)"
fill="#000000" stroke="none">
<path d="M3218 1533 c-3 -129 -4 -138 -23 -141 -45 -9 -45 -5 -45 -399 l0
-374 -27 -23 c-24 -21 -27 -32 -32 -109 -9 -127 -21 -117 -21 17 0 94 -3 118
-15 122 -10 4 -15 20 -15 45 0 36 -2 39 -29 39 -24 0 -29 -5 -35 -31 -3 -17
-6 -53 -6 -80 l0 -49 -38 0 c-32 0 -39 4 -50 30 -11 24 -20 30 -45 31 -18 0
-42 2 -54 5 -22 4 -23 1 -23 -61 0 -58 -2 -65 -20 -65 -17 0 -20 -7 -20 -39 0
-48 -12 -58 -44 -34 -20 15 -27 33 -37 101 -12 83 -24 106 -40 81 -6 -10 -9
-2 -9 24 l0 37 -75 0 -75 0 0 -30 c0 -16 -4 -30 -10 -30 -5 0 -10 -11 -10 -24
0 -33 -17 -76 -30 -76 -5 0 -10 20 -10 45 0 48 -11 56 -51 35 -13 -7 -25 -7
-38 0 -11 5 -40 7 -65 4 l-46 -7 0 -43 c0 -32 -4 -44 -15 -44 -9 0 -15 -9 -15
-25 0 -35 -16 -31 -24 6 -5 25 -9 29 -26 24 -19 -6 -20 -2 -20 74 l0 81 -50 0
c-57 0 -58 -1 -70 -83 l-8 -52 -1 63 -1 62 -30 0 c-29 0 -30 1 -30 50 l0 50
-50 0 c-47 0 -50 -2 -50 -26 0 -23 -3 -25 -32 -22 l-33 3 -6 190 c-7 222 -12
253 -45 288 -20 22 -24 37 -24 86 0 33 -4 63 -10 66 -5 3 -10 23 -11 43 0 20
-4 46 -8 56 -7 18 -8 18 -14 -5 -4 -13 -7 -39 -7 -56 0 -18 -4 -33 -10 -33 -6
0 -10 -27 -10 -62 0 -50 -5 -67 -25 -94 -35 -45 -44 -135 -47 -434 -1 -131 -4
-181 -5 -113 l-4 123 -49 0 -50 0 0 -146 c0 -94 -4 -143 -10 -139 -6 4 -10 59
-10 131 0 136 -6 154 -54 154 -25 0 -26 1 -26 70 l0 70 -35 0 -35 0 0 -146 c0
-133 -1 -145 -18 -142 -15 3 -17 18 -20 126 l-3 123 -37 -3 -37 -3 -3 -177
c-1 -108 -6 -178 -12 -178 -6 0 -10 9 -10 20 0 10 -8 23 -17 29 -15 8 -19 27
-21 100 l-4 91 -99 0 -99 0 0 -65 c0 -51 -3 -65 -15 -65 -9 0 -15 -9 -15 -23
0 -13 -7 -32 -15 -43 -13 -17 -14 -3 -15 133 0 99 -4 153 -11 155 -6 2 -25 78
-43 168 l-33 165 -11 -55 c-14 -69 -52 -270 -52 -276 0 -2 -7 -4 -15 -4 -12 0
-15 -17 -15 -97 l0 -98 -92 0 -93 0 -5 -120 c-4 -66 -7 -103 -8 -82 -2 34 -4
37 -32 37 -19 0 -33 7 -40 20 -9 16 -21 20 -65 20 l-55 0 0 -55 0 -55 -70 0
-70 0 0 -145 0 -145 1950 0 1950 0 0 68 0 67 -62 42 c-35 24 -78 46 -95 49
-18 4 -33 12 -33 19 0 7 -7 18 -15 25 -12 10 -15 38 -15 131 l0 119 -50 0 -50
0 -1 -82 c0 -56 -3 -76 -9 -63 -5 11 -9 143 -9 293 l-1 272 -60 0 -60 0 -2
-267 -3 -268 -2 237 -3 238 -39 40 c-21 22 -42 40 -47 40 -5 0 -30 -18 -56
-41 l-48 -41 0 -211 c0 -139 -3 -208 -10 -201 -6 6 -11 165 -12 414 -3 403 -3
405 -24 408 -19 3 -22 12 -27 85 -4 45 -7 108 -7 140 0 31 -4 57 -10 57 -5 0
-11 -57 -12 -137z"/>
</g>
</svg>
